<?xml version="1.0" encoding="utf-8"?>
<!-- Generator: Adobe Illustrator 23.0.4, SVG Export Plug-In . SVG Version: 6.00 Build 0)  -->
<svg version="1.1" xmlns="http://www.w3.org/2000/svg" xmlns:xlink="http://www.w3.org/1999/xlink" x="0px" y="0px"
	 viewBox="0 0 454.7 463.7" style="enable-background:new 0 0 454.7 463.7;" xml:space="preserve">
<style type="text/css">
	.st0{stroke:#000000;stroke-width:0.2;stroke-miterlimit:10;}
</style>
<g id="Layer_1">
</g>
<g id="Layer_2">
</g>
<g id="Layer_3">
</g>
<g id="Layer_4">
	<path d="M376.8,214.5c0.1-0.4,1-0.6,1.1-0.9c-1.6-0.4-0.2-0.8,0.3-1.1c-2.2-0.9-5,1.6-7.2,2.2c-0.2,0.7-0.7,1-1.5,0.8
		c0.5-0.3,1-0.6,1.5-0.8c0.1-0.4,0.1-0.4,0.2-0.7c-1.5-0.7-2.2-0.9-3,0.5c0.4,0.1,0.8,0.2,1.2,0.3c0.1-0.4,0.5-0.3,0,0
		c-1,0.6-1.6,1.2-2.8,1.3c0.2-0.7,0.4-1.5,0-1.6c-0.9,0.2-0.6,2.2-1.7,2c-0.4-0.1-0.7-0.6-1.1-0.7c-7.4,2.8-15.2,6.3-23.2,9.8
		c-0.1,0.4-0.3,0.7-0.8,0.7c-0.5,0-1,0.2-1.4,0.4c-0.2,0.1-0.4,0.1-0.6,0.1c-0.7,0.3-1.4,0.6-2.2,0.9c0,0.2-0.2,0.4-0.4,0.5
		c-1,0.5-2,0.9-3,1.3c-0.4,0.2-0.7,0.1-0.9-0.1c-0.3,0.1-0.7,0.3-1,0.4c0,0.4-0.2,0.8-0.6,0.9c-0.3,0.2-0.5,0.2-0.8,0.2
		c0.4,0.4,0.5,1-0.2,1.3c-2.2,0.9-4.6,1-6.9,1.8c-0.6,0.2-1-0.2-1.1-0.7c-0.5,0.2-1,0.3-1.5,0.5c0.1,0.4-0.1,0.8-0.6,0.9
		c-0.6,0.2-1.2,0.3-1.8,0.6c-0.5,0.3-1,0-1.2-0.5c-1.3,0.3-2.5,0.7-3.8,1c-0.1,0.3-0.4,0.6-0.8,0.6c-3,0.4-5.9,1.3-8.8,1.8
		c-0.5,0.1-0.8-0.2-1-0.6c-4.1,0.5-8.3,0.7-12.6,0.4c-2.4-0.2-4.6-1.5-7.8-1.9c0.1-0.4-0.6-0.9-0.5-1.3c2.2-16.4,14.7-26.1,24-36.5
		c-0.1,0.4-0.2,0.7,0.2,0.8c0.6-0.6,2.9-1.7,2.3-2.6c-1.7,1.6,0.3-1.1-0.8-1.8c-0.7-0.6-0.6,0.6-1.4,0.5c-0.3-0.5-0.1-1.2,0.8-1.4
		c1.6,0,0.9,1.4,2.1,1.3c0.1-0.4,0.5-0.3,0,0c0.2,2.4,3-0.5,2.1-1.9c1.7,1.2,1.3-1.7,3.1-0.8c-0.7-2.1,1.5-2.4,2.6-3.7
		c-0.4-0.1-0.3-0.5-0.7-0.6c-0.1,0.4-0.9,0.2,0,0c1-2.1,1,1,1.8,0.8c1.3-0.1,3.1-2.4,4.1-4.5c0.8,0.2,0.1,1.2,0.9,1.4
		c0.6-2.2,5.1-1.9,2.7-4.1c-0.7,1-1.7,1.6-2.9,1.7c-0.2-0.8-0.6-0.9-0.9-1.4c0.7-1,4.2-0.2,3.4-2c-0.1,0.4-0.9,0.2-0.8-0.2
		c1.2-1.3,1.2-1.3,2.2-2.2c-0.1,0.4-0.3,1.1,0.1,1.2c0.2-0.7,0.2-2.3,1.3-1.7c-0.3,1.1-1.2,1.3-0.1,2c0.1-2,1.5-2.4,3-2
		c0.1-0.4,0.5-0.3,0,0c-0.3,1.1-1.7,0-1.8,0.7c0.4,0.1-0.9,1.8-1.5,2.4c0.5-1.9-0.5,0.3-1,0.6c1.7,0-0.5,1.9,1.3,1.5
		c0.7-1,1.8-0.7,2.1-1.9c-0.4-0.1-1,0.6-1.4,0.5c0.1-0.4,0.2-0.7,0.3-1.1c-0.4-0.1-0.3-0.5,0,0c4,0.6,5.7-3,8.5-4.3
		c3.8-0.3,5.4-3.4,8.6-4.6c0.2-0.7,0.4-1.5,0.6-2.2c1.4,1.1,2.1-0.3,3.1-0.8c-0.8-0.2-0.6-0.9-0.4-1.7c3.8,1.3,6.1-1.3,9.5-1.7
		c0.1-0.4,0.2-0.7,1-0.6c-0.1,0.4-0.2,0.7-1,0.6c-1.3,1.7-0.3,4.3-2.7,4.1c-0.7,1-0.5,1.9,0.2,2.4c-5.4,3.4-8,8.4-12.8,12.7
		c0.4,0.1,0.2,0.8-0.2,0.7c0.1-0.4,0.1-0.4,0.2-0.7c-0.8-0.2-1.1,0.9-1.3,1.7c2.9-0.1,0.3,2,0.9,3c1.5,0.7,1.8-0.7,3.7,0.1
		c0.6,0.9-0.8,1.4-0.2,2.3c1.1,0.7,1.3-0.1,2,0.1c-1.7,1.6,0.4,3.3,2.7,3.8c-0.5,1.9-0.3,1.1,1.3,1.5c-0.2,0.7-0.8,1.4,0,1.6
		c1.9,0.5,4.2,3,7.3,3.7c0.5-0.3,0.8-1.4,1.6-1.2c6.1-15.5,17.8-19,21.7-35.5c-0.7-0.6-1.2-1.9-2.8-1.9c-0.7-6.9-6.1-11.3-11.5-15.8
		c-9.6-2.7-17.3,1.4-25.2,3c-1.6,1.2-2.3,1-3.8,1.9c0.4,0.1,0.2,0.8,0,0c-2.4,1.4-6.4,0.8-7.7,4.1c0.4,0.1,1.2,0.3,1.1,0.7
		c-0.9,0.2-1.2,1.3-2.3,1c0.1-0.4-0.3-0.5-0.2-0.8c0.7,0.6,1-0.6,0.6-0.6c-0.4,1.5-1.4-1.1-1.6,0c0.4,0.1,0.7,0.6,0.5,1.3
		c-1.2-0.3-1.4,0.5-1.8,0.7c0.4,0.1,1.2,0.3,1.1,0.6c-1.3,0.1-1.9,1.1-3.2,1.2c-0.1,0.4-0.5,0.3-0.4-0.1l0.4,0.1l0.1-0.4
		c-1.3,0.1-2.3,1-1.9,2.3c-2.8,0.1-5.1,1.1-7.7,2c0.5-0.1,1.4,0.2,1.2,0.8c-4.2,1.8-8.2,4.4-11.2,8c0.8,0.2,0.7,0.6,0.6,0.9
		c-0.8-0.2-1.3,0.1-1.4,0.5c0.4,0.1,0.2,0.8-0.2,0.7c0.1-0.4,0.1-0.4,0.2-0.7c-1.3,0.1-0.7,1-0.9,1.8c-2.6,0.6-3.6,2.7-6.2,1.7
		c-5.9,5.3-14.3,10.4-18.1,17c0.5-0.3,0.4-1.5,1.5-0.8c-0.1,0.4,0.3,0.5,0.2,0.8c-0.9,0.2-0.9,1.8-2.1,1.9c0.1-0.4-0.2-0.8-0.6-0.9
		c0.3,2-1.1,0.9-1.5,0.8c-4,1-6,8.8-8.7,12.5c-0.8-0.2-1.6-0.4-1.7,0.4c0.8,0.2,1.4-0.5,1.2,0.3c-1.4,2-1.6,2.8-2.8,4.5
		c0.2-0.7-0.2-0.8-0.6-0.9c-2.3,4.2-1.9,7.1-1.5,10.3c0.9,0.2,0,0.9-0.2,0.6c-0.8,2.9,0.4,6.7,1.3,9.2c-0.4-0.1-0.4-0.1-0.8-0.2
		c0.4,1.7,1.3,3.1,2.7,2.2c-0.5,0.3-0.6,0.7-0.7,1c7.6,7.3,15.7,17.2,29.8,18.6c-0.2,0.7,0.2,0.8,0.6,0.9c4.4,0.7,9.9,0,13.5,0.5
		c0.2-0.7-0.5-1.3,0.8-1.4c3.2,2,5.9-0.6,9.9,0c-0.8-0.2-1.7,0-1.5-0.7c0.1-0.4,0.9-1.8,3.1-0.8c1.8-2.3,5-0.4,7.4-1.4
		c-0.7-0.6-1.8,0.7-1.6-0.4c10.1-2.3,17.4-6.5,25.9-10.8c0-1.6,0.2-2.3,1.6-2.8c-0.9-1.2,0.1-1.6,0.6-2.2c0-0.3,0.1-0.5,0.3-0.7
		c0-0.2-0.1-0.5-0.4-0.9c0.2,0,0.4,0.1,0.6,0.1c-0.1-0.5,0.2-1,0.8-1.1c1,0,1.7,0,2.3,0.9c0.1,0.2,0.1,0.4,0.1,0.6
		c0.2,0.2,0.1,0.7,0.4,0.8c0.7-1,2.9-0.1,3.4-1.9c-0.5,0.3-0.9,0.2-1.3,0.1c1-2.1-0.7-0.6-0.3-2c1.2,0.3,2.3,0.6,2.9-0.1
		c-0.7-0.6,0.6-0.7,0.1-2c0.5-0.3,1.9,0.5,2.2-0.6c-0.4-0.1-0.2-0.8,0.2-0.7c0.2-0.7,0.7-1,1.1-0.9c1.7-1.6,4.5-1.3,5.9-3.7
		c-1.2-0.3-1.4,0.5-2.1,0.3c-0.1,0.4-0.6,0.7-1,0.6c-0.2,0.7-1.4,0.5-1.8,0.7c0.1-0.4,0.3-1.1,0.4-1.5c-0.4-0.1-0.4-0.1-0.8-0.2
		c-0.1,0.4-0.9,0.2,0,0l0.1-0.4c-0.4-0.1-0.3-0.5,0,0c0.2-0.7,1.2-2.9,1.8-0.7c1.8-2.3,5.1-2.3,7-4.6c-1.1-0.6-1.3,1.7-1.6,0
		c-1,0.6-1.2-0.3-1.4-1.1c-0.8-0.2-1.1,0.9-1.9,1.1c-0.9-1.4,1.7-1.6,2.6-2.1c-0.1,0.4-0.6,0.7-0.7,1c1.9,0.5,3.4-0.4,4.3-2.1
		C377.7,213.9,376.9,215.7,376.8,214.5z M358.9,161.6c-0.1,0.4-0.6,0.7-1.4,0.5C357.6,161.7,358.1,161.4,358.9,161.6z M332.5,158
		c-0.2,0.7-1.4,0.5-1.6,1.2C329.9,158.6,331.8,157.8,332.5,158z M331.2,175.9c-0.2,0.7-1,0.6-1.7,0.4
		C329.3,175,330.4,175.7,331.2,175.9z M327.9,160.1c0.2-0.7,1.1-0.9,1.6-1.2C330.1,159.4,328.7,160.3,327.9,160.1
		C327.6,161.2,326.4,159.3,327.9,160.1z M327,161.8c-0.1,0.4-0.5,0.3-0.9,0.2C326.2,161.6,326.6,161.7,327,161.8z M323.8,163
		c0.1-0.4,0.1-0.4,0.2-0.7c0.4,0.1,0.8,0.2,1.2,0.3c-0.1,0.4-1,0.6-1.1,0.9C323.7,163.4,323.7,163.4,323.8,163z M320.7,165.5
		c-0.5,0.3-0.4,1.5-1.5,0.8C319.7,166,319.6,164.8,320.7,165.5z M314.8,175.1C314.9,174.7,315.3,174.8,314.8,175.1
		c0.6,0.9-0.4,1.5-1.5,0.8C313.9,175.7,314.4,175.4,314.8,175.1z M307.3,174.1c0.1-0.4,0.5-0.3,0.9-0.2
		C308.1,174.3,307.7,174.2,307.3,174.1z M312.1,190.3c-0.3,1.1-1.5,0.8-1.5,2.4c-1.2-0.3-1.7,0.4-2.8-0.3c0.2-0.7-0.2-0.8,0-1.6
		c0.4,0.1,0.6,0.9,0.9-0.2c0.4,0.1,0.6,0.9,1.2,0.3c-0.7-0.6-1.8-0.8-1.2-1.9c0.7,0.6,0.9,1.4,1.8,0.8c0.3-1.1-1.9-0.5-1.2-1.9
		C311.4,188.1,311,189.6,312.1,190.3z M308.4,180.7c0.8,0.2,0.7,0.6,0.6,0.9c-0.4-0.1-0.4-0.1-0.5,0.3
		C308.1,181.8,308.3,181.1,308.4,180.7z M310.8,171.8c-0.2,0.7-0.4-0.1-0.8-0.2C310.1,171.2,310.9,171.4,310.8,171.8z M308.2,170.7
		c0.4,0.1,0.4,0.1,0.5-0.3c0.4,0.1,0.4,0.1,0.8,0.2c-0.1,0.4-0.1,0.4-0.2,0.7c-0.4-0.1-0.4-0.1-0.5,0.3c-0.4-0.1-0.4-0.1-0.8-0.2
		C308.1,171.1,308.1,171.1,308.2,170.7z M308.1,172.7c-0.1,0.4-0.5,0.3-0.9,0.2C307.3,172.5,307.7,172.6,308.1,172.7z M305.8,174.9
		c0.7,0.6-0.6,2.2-1.7,1.6C304.7,175.9,305.2,175.6,305.8,174.9z M304.3,184c0.4,0.1,0.4,0.1,0.8,0.2c-0.1,0.4-0.1,0.4-0.2,0.7
		c-0.4-0.1-0.4-0.1-0.8-0.2C304.2,184.4,304.2,184.4,304.3,184z M304.6,185.7c0.4,0.1,0.4,0.1,0.8,0.2c-0.2,0.7-0.6,0.6-1.4,0.5
		C304.2,186,304.5,186.1,304.6,185.7z M303.6,194.5c-0.4-0.1-0.3-0.5-0.7-0.6C303.1,193.2,304.9,194.1,303.6,194.5z M305.2,196.1
		c-1.3,0.1-1.7,1.6-3.2,1.2C302.4,195.8,303.7,195.7,305.2,196.1z M302.1,185.9c-0.1,0.4-0.5,0.3-0.9,0.2
		C301.3,185.7,301.7,185.8,302.1,185.9z M297.5,178.4c0.8,0.2-0.3,1.1-0.4,1.5C295.9,179.7,297.4,178.8,297.5,178.4z M298.1,198
		c0.3,0.5,0.7,0.6,1.1,0.7c-1.4,2-0.8,1.4-1.2,2.9c-1.9-0.5-2.7,0.9-4.4,0.9C295,200.4,297.1,200.5,298.1,198z M289.1,197.8
		c-0.1,0.4-0.5,0.3-0.9,0.2C288.3,197.6,288.7,197.7,289.1,197.8z M281.7,196c-0.7-0.6,0.2-0.7,0.3-1.1
		C282.7,195.4,281.8,195.6,281.7,196z M282.4,191.8c0.4,0.1,0.8,0.2,1.2,0.3c-0.6,0.6-1.2,1.3-2.3,1
		C281.4,192.4,282.5,193,282.4,191.8z M281.1,218.8c0.9-0.2,0.2,0.8,1,1C281.8,220.9,280,219.7,281.1,218.8z M276,199
		c0.1-0.4,0.5-0.3,0.9-0.2C276.8,199.2,276.4,199.1,276,199z M279.4,223.9c0.1-0.4,0.1-0.4,0.2-0.7c0.4,0.1,0.4,0.1,0.5-0.3
		C280.8,223.1,279.9,224.8,279.4,223.9z M354.4,235.2c0.1-0.4,0.5-0.3,0.9-0.2C355.2,235.4,354.8,235.3,354.4,235.2z M361.7,234.2
		c-0.1,0.4-0.5,0.3-0.9,0.2C360.9,234,361.3,234.1,361.7,234.2z M362.6,218.2c-1.1-0.7,0.8-1.4,1.6-1.2
		C363.9,217.7,362.8,217.5,362.6,218.2z M367.7,225.4c-0.1,0.4-0.3,1.1-0.4,1.5c-0.8-0.2-1,0.6-2-0.1c0.5-0.3,1.4-0.5,1.7-1.6
		c-0.4-0.1-0.9,0.2-1.3,0.1c-0.1,0.4-0.9,0.2,0,0c0.2-0.7,0.6-0.6,1.1-0.9c0.4,0.1,0.3,0.5,0.2,0.8
		C367.3,225.3,367.3,225.3,367.7,225.4C367.8,225,368.2,225.1,367.7,225.4z M367.8,217.1c-1.1-0.7,0.7-1,0.8-1.4
		C369.7,216.3,367.9,216.7,367.8,217.1z"/>
	<g>
		<g>
			<path d="M74.1,434.9c-0.7,0.3-1,0.8-1.3,1.4c0.5-0.3,1.2-0.7,1.9-1.1C74.5,435,74.4,434.8,74.1,434.9z"/>
		</g>
		<g>
			<path d="M346.3,95.1c0,0.2-0.1,0.4-0.4,0.5c-0.9,0.5-1.3,1.2-1.3,2.2c-0.2-0.2-0.5-0.4-0.5-0.5c0-0.2,0-0.5,0-0.7c0,0,0,0,0,0
				l-0.1,0.1l-0.3,0.2l0,0c-0.6,0.4-1.2,0.8-1.8,1.2l-0.1,0.1c-0.4,0.2-0.8,0.4-1.2,0.6c0,0,0,0,0,0c0,0,0,0,0,0c0,0,0,0,0,0
				c-1.6,0.7-5.7,5.7-6.3,6.5c-0.3-0.7-5.6,1.5-5.6,1.5c-0.4,0-0.8,0.2-1.4,0.5l-0.4,0.2l-0.2,0.4c-0.6,1-1.9,3.1-2.6,4.6l-5.2,4.6
				c-0.6,0-1.3,0.3-2.1,0.9l-0.1,0.1l-0.1,0.1l-2.8,3.3c-0.6,0-1.7,0.3-4.4,2.1c-3.7,2.7-4.3,4.6-4.5,6.6c-0.1,0.8-0.2,1.3-1.2,2
				l-3.7,1.1l-2.4,1.1c0,0-2.7,0-4.5,1.5l-4.2,1.9c-6.6,3.2-2,2.5-3.7,5.5c-0.5-0.2-0.9-0.4-1.5-0.5c-1.4-0.1-2.8,0.7-5,2.9
				c-2.1,2.1-3.1,3.4-2.6,4.8c0,0.1,0.1,0.3,0.2,0.4l-2,0.6l-0.5,0.2l-0.3,0.4c-2.9,4-6.5,6.5-10.3,9.2c-1.5,1.1-3,2.1-4.5,3.3
				c-0.9,0.9-1.4,1.6-1.7,2.2c-3.3,2.2-5.6,5.1-7.6,7.7c-1.5,1.9-3,3.7-4.6,4.9c-0.7,0-1.6,0.4-3.1,1c-0.7,0.3-1.3,0.6-1.6,0.6
				l-0.5,0.1l-0.4,0.4l-3.5,0.6l-1.5,1.4c-1.1,1-1.7,1.9-2.3,2.6l-0.1,0c-0.5,0-1,0.1-1.7,0.4l-0.5,0.2l-0.3,0.5l-5.8,9.9l0.4-2.7
				l-3.3,2.9c-1,0.9-1.6,1.5-1.9,1.8c-0.1,0-0.2,0-0.2,0c-0.6-0.1-1.3,0.1-2.3,0.6l-0.2,0.1l-0.2,0.1c-2.6,2.3-3.7,4.4-3.1,6.1
				c0,0.1,0,0.1,0.1,0.2c-2.6,1.9-4.1,3.1-5.9,5.5l-0.8-1.3l-0.3,0.3l0.4-1.5l-3.5,2.5c-3.5,2.5-7.9,7.8-7.9,7.8l-0.7,1.2
				c-0.9,1.6-1,3-1,4c0,1.2-0.1,1.3-1,1.8l-0.8,0.4l-0.1,0.9c-0.1,1.6,0.7,2.3,1.4,2.5c-1.1,1.4-2,3.3-2,5.1l0,0.4l0.2,0.4
				c0.4,1,1,1.4,1.5,1.5c-0.2,1-0.4,1.5-0.7,2.1l-0.1,0.1l-0.1,0.3c-0.6,1.9-0.8,4,2.7,7.4l-1.3-0.3l4.3,2.9l3.5,2.9l-1.1,0.4
				l2.4,0.7l0,0l0,0l2.2,0.6c2.5,0.7,4.5,1.5,6.3,2.5l-1.4,0.5l1.2,1l-2.4-0.3l4.9,3.6c4.6,3.4,8.8,5.4,12.5,7.3
				c3,1.5,5.7,2.8,8,4.5l0.7-1c0.7,0.7,1.4,1.3,2,1.9c0.6,0.6,1.3,1.2,1.9,1.8c1.2,1.2,2.1,2.4,2.6,3.5l-0.4,0.1l0,0l0.1,0.2
				c0.1,0.5-0.1,2.1-2.3,7.5l-0.1,0.2c-0.2,0.2-0.4,0.4-0.6,0.6c-0.6,0.7-1.2,1.3-1.8,1.6c-1.2,0.7-1.8,0.9-2.6,1.1l-0.7,0.2l-1,0.3
				c0.1,0.1,0.2,0.3,0.4,0.6c-0.6,0.1-0.6,0.1-1.2-0.4l-0.8,0.2c-1.9,0.5-3.4,1-4.7,2c-1.3,0.9-6.2,5.2-5.6,7.7
				c0.1,0.5,0.5,0.9,0.9,1.2c0,0,0,0,0,0c0.2,0,0.4-0.1,0.8-0.2c-0.1,0.5-0.2,0.9-0.2,1.3c0,0.4,0.2,0.8,0.4,1.2c0,0,0,0,0-0.1
				c0,0,0-0.1,0-0.1c0.1-0.1,0.1-0.1,0.2-0.2c-0.1,0.1-0.2,0.2-0.2,0.3c0,0,0,0,0,0.1l0,0l0,0c-0.4,0.1-0.6,0.2-0.4,0.6c0,0,0,0,0,0
				l0,0c0,0,0,0,0,0c0,0,0,0,0,0c-0.2,0.2-0.3,0.4-0.5,0.6c0,0-0.3,0-0.3-0.1c0,0,0-0.3,0.1-0.3c0.2-0.1,0.5-0.1,0.8-0.2
				c0,0,0,0,0,0c0,0,0,0,0,0c-0.3-0.3-0.8-0.4-0.7-1c0.1-0.4-0.1-0.9-0.2-1.5c-0.6,0.7-1.3,1.5-2.2,2.2c0,0,0,0.1,0,0.1
				c-0.1,0-0.1,0-0.2,0c-1.2,1.1-2.6,2.2-4.4,3.4c-0.3-0.3-0.8-0.5-1.3-0.6c-0.6-0.1-1.1,0.1-1.6,0.2c-0.2,0-0.4,0.1-0.5,0.1l-1-0.9
				c-3.3,3.1-3.8,4.2-4.4,5.9c0,0,0,0,0,0l-1.4,0.2l-0.2,0c0,0,0,0,0,0c-0.4,0.4-0.8,0.7-1,0.9c-1.1,2.4-1.3,3.4-1.4,4.1
				c-0.1,0.6-0.2,0.9-2.8,3.9c-0.3,0-0.6,0-1,0.1l1.6-3.4c0,0,0,0,0,0l-4.9,3.8c0,0,0,0,0,0.1c0,0,0,0-0.1,0l-0.2,0.2
				c-2.2,1.7-4,3.6-5.1,5.4c-3.4,3.3-5.4,4.5-7.1,5.6c-2.1,1.3-3.9,2.4-7.3,6.4l-2.9,3.3l1.3-0.2c-2.8,2.9-6.1,5.9-9.5,8.9
				c0.2,0.2,0.2,0.6-0.1,0.8c-0.4,0.4-0.9,0.6-1.5,0.8c0,0,0,0,0,0c-0.3,0.3-0.6,0.4-0.9,0.5c-0.8,0.7-1.6,1.4-2.4,2
				c-1,0.9-2.1,1.8-3.1,2.7c0.1,0.1,0.1,0.3,0,0.5c-0.4,1.3-1.5,2.1-2.9,2c-0.7,0.7-1.5,1.3-2.2,2c0,0.2-0.1,0.4-0.3,0.5
				c-0.3,0.2-0.5,0.3-0.7,0.7c-0.1,0.3-0.4,0.3-0.6,0.3c-0.1,0.1-0.1,0.1-0.2,0.2c0.1-0.1,0.3-0.2,0.5-0.2c0.9,0,0.9,1.3,0,1.3
				c-0.4,0-0.6-0.3-0.6-0.7c-0.1,0.1-0.3,0.2-0.5,0.2c0,0,0,0-0.1,0c-0.4,0.4-0.8,0.8-1.2,1.2c0.6,0.2,0.5,1.3-0.2,1.3
				c-0.3,0-0.5-0.2-0.6-0.5c0,0-0.1,0.1-0.1,0.1l0.5,0.7c-0.8,0.8-1.7,1.8-2.7,2.6c-0.2-0.1-0.5-0.1-0.8-0.2
				c-1.4-0.1-3.8,0.4-6.4,2.4l-0.8,0.6l0.1,0.9l-0.3,0l-0.4,0.1l-0.3,0.3c-0.9,0.7-2,1.8-1.6,3.1c-3.1,0.9-6.7,4-10.5,7.3
				c-2.4,2.1-5.1,4.4-7.3,5.7c-1,0.6-1.9,1-2.6,1.1l-1.3,0.2l0,0.6c0,0,0.1,0,0.1,0c0.9,0,0.9,1.3,0,1.3c0,0-0.1,0-0.1,0
				c0,0.2,0.1,0.4,0.1,0.6l-1.2,0.9l2.2,0.1c0,0,0,0,0,0c-2.3,1.8-4.4,3.3-6.3,4.7c-5.1,3.8,4.5-2.6-0.7,2.3l-1.8,1.3
				c-2.4,1.7-4.2,3.2-5.3,4.9c-0.4,0-0.8,0.1-1.3,0.3l-0.7,0.3l-0.2,0.7c-0.9,3.5-8.2,5.3-11.6,7.3c-2.6,1.6-5,3-6.2,5.1
				c0,0,3.5,0.4,3.4,0.4c-1.7-0.2-6.6,2.6-8.6,3.2l-0.4,0.1l-0.3,0.3c-4.9,5.5-2.8,5.3-2.6,6.7c0.1,0.7,0.4,1.2,1,1.6l0.1,0.1
				c0-0.2-0.1-0.4-0.1-0.6c0.3-0.1,0.4-0.2,0.5-0.2c0.2,0,0.3,0.1,0.4,0.2c0.5,0.3,1.1,0.3,1.6-0.1c0.6-0.6-0.1-1-0.2-1.5
				c1.2-0.3,2.2-0.3,3.7,0.1c0,0,0.1,0,0.1,0.1c0.7-0.4,1.5-0.9,2.4-1.5c-0.1-0.1-0.3-0.2-0.5-0.3c0.5-0.2,0.8-0.4,0.9-0.3
				c0.1,0,0.2,0.1,0.3,0.2c10.7-6.7,35.1-22.8,90.7-60.8c-0.3-1.3,0.4-2.4,1.7-2.9c0.6-0.2,1,0.2,1,0.6c0.5-0.5,1.1-0.9,1.6-1.4
				c0.4-0.4,0.8-0.3,1.2,0c0.2-0.1,0.3-0.2,0.5-0.3c0-0.3,0.2-0.6,0.6-0.7c0.3-0.1,0.6-0.3,1-0.4c0.1,0,0.1,0,0.2,0
				c3.1-2.1,6.2-4.2,9.5-6.5c0.4-0.3,0.7-0.5,1-0.8c0-0.2,0.1-0.4,0.3-0.6c1-0.9,2.1-1.5,3.4-2.1c0.2-0.1,0.4-0.1,0.6-0.1l1.6-1.1
				l0.2-0.1l0.1-0.1l0.3-0.1l1.5-1.1c0-0.1,0.1-0.2,0.2-0.3c0.4-0.4,0.7-0.7,1.2-1c0.2-0.1,0.4-0.1,0.6-0.1l2.5-1.7l0.2-0.2l0,0
				l1-0.7l0.3-0.2l0.1-0.1l0.2-0.2l1.8-1.8l0.2,0.4l1.4-1c9.9-6.8,19.7-13.5,28.9-19.8l0.7-0.5l0-0.8l0,0c0.1,0,0.6-0.7,0.9-1.1
				c0.2-0.2,0.3-0.4,0.5-0.6c5.6-3,14.4-10.3,21.4-16.3c4.1-3.5,7.7-6.5,9.6-7.7c1.2-1,2.3-1.9,3.3-2.8c6.7-5.6,13.6-11.4,14.2-17.8
				l0.1-0.6l-0.3-0.5c-0.3-0.4-0.7-1-1.2-1.4c-0.5-0.5-1.1-0.8-1.7-1.1c0.1-1.3-0.2-2.6-0.2-2.6l-0.1-0.3l-0.2-0.2
				c-1.4-1.9-3.2-3.4-5.2-4.8c-0.3,0.4-0.9,0.7-1.4,0.2c-0.8-0.8-1.7-1.4-2.7-2c-0.4-0.2-0.4-0.6-0.4-0.9c-0.1-0.1-0.2-0.1-0.3-0.2
				c-0.1,0-0.1,0-0.2,0.1c-0.3,0-0.6,0.1-0.8,0.2c-0.7,0.1-1-0.6-0.8-1.1c-0.1,0-0.1-0.1-0.2-0.1c-0.1,0.2-0.4,0.4-0.7,0.4
				c-0.4,0-0.7-0.3-0.8-0.6c-0.2-0.1-0.3-0.2-0.4-0.3c0,0-0.1,0-0.1,0c-0.6,0-0.9-0.4-0.9-0.9c-0.6-0.3-1.3-0.6-1.9-0.9
				c-0.2,0.1-0.5,0.2-0.8-0.1c-0.2-0.1-0.3-0.2-0.5-0.3c-0.1-0.1-0.2-0.2-0.3-0.3c-0.6-0.2-1.2-0.5-1.8-0.8c-1.2-0.5-2.5-1-3.8-1.6
				c0-0.4,0-0.8-0.1-1.3c-0.3-0.1-0.6-0.4-0.6-0.8c0-0.7,0-1.4,0.2-2.1c0-0.2,0.1-0.3,0.2-0.4c0-0.3,0-0.6,0-0.8
				c-0.1-0.1-0.2-0.3-0.2-0.6v-0.3c0-0.2,0-0.3,0.1-0.4c-0.1-0.4-0.2-0.6-0.4-0.8l-0.2-0.3l-0.3-0.1c-2.1-0.9-4.5-2-7-3.1l-0.2-0.1
				l-0.2,0c-1.6-0.4-4-0.9-5.8-1.1c-0.9-0.1-1.9-0.1-2.6,0.1c-2.5-1.4-3.7-2.3-5-3.2c-1.3-0.9-2.5-1.9-5.1-3.3l-6.2-3.4
				c-0.1-0.1-0.2-0.3-0.3-0.4l-0.2-0.3l-0.3-0.6c-0.9-1.8-1.3-3.5-1.1-5.1l0.2-1.5l-1.5-0.2l-0.8-0.1c-2.2-0.2-4.1-0.1-5.6,0.5
				c0.2-0.2,0.3-0.4,0.5-0.6c0.5-0.6,0.9-1.2,1.2-1.8c2.7-2.7,3.9-4.9,4.8-6.7c0.1-0.2,0.2-0.4,0.3-0.6l0.9-0.3
				c1.4-0.4,4.4-5,6.3-8.4c0.5,0.7,1.2,1.4,2.3,1.5c0.6,0.1,1.1-0.1,1.7-0.3l0.2-0.1l0.2-0.2c5.5-5,9.1-12.3,8.5-9.4l10-5.7l0.4-0.4
				l0-0.6c0.2-2.9,2.4-2.7,2.4-2.7l2.9-2.9c3.7-3.4,20.1-21.6,20.1-21.6l1.9-1.7c1.5-1.3,2.1-3.2,1.5-4.9c-0.1-0.3-0.2-0.5-0.3-0.7
				c0.9-0.5,1.5-0.8,2-1.1c1.4-0.8,2-1.1,5.6-2.5l0.4-0.2l0.3-0.3c0.6-0.8,0.6-1.5,0.5-2c0.9,0.4,2,0.7,2.9,1l0.4,0.1l0.9,0.2
				l0.6-0.6l16.9-15.7l1.3-1.2l0.4-0.4l0.1-0.6c0,0,7.1-8.8,7.6-10.4l1.1,0.3l0.6-1c0.6-1,2.6-1.3,3.8-2.6c2.4-2.6,5-2.5,5-2.5
				l4-4.3c5.1-6,7.6-9.1,9.4-13.5l0.7-1.7l0,0l0.2-0.6c-0.2-0.2-0.4-0.5-0.7-0.8c0.4-0.5,0.7-0.2,1,0c0.1-0.3,0.3-0.7,0.4-1l0.8-2.8
				C347.1,95.7,346.7,95.2,346.3,95.1z M200.7,252.6l-0.1-0.1c0.1,0,0.1,0.1,0.2,0.1L200.7,252.6z M70.9,429.5
				c-0.1-0.2,0.5-0.5,0.6-0.3C71.7,429.6,71.2,429.3,70.9,429.5z M79.3,425.9c0,0-0.1-0.1-0.1-0.2c0.1-0.1,0.2-0.1,0.3-0.1
				c0.1,0,0.2,0.1,0.3,0.2C79.6,425.8,79.4,425.9,79.3,425.9z M87.1,421.1c-0.6,0.3-1.8,1.2-1.7,0.3
				C85.9,420.8,86.7,420.1,87.1,421.1z M81.6,424.3c-0.1-0.2,0.2-0.4,0.5-0.5C82.2,424,81.9,424.2,81.6,424.3z M82,423.3
				c0,0,0.5-0.8,0.9-0.7C83.6,422.8,82,424.4,82,423.3z M85.1,420.6c-0.2-0.3-0.4-0.6-0.7-0.9C85.3,419.7,85.4,420,85.1,420.6z
				 M84.7,423.6c0.1-0.3,0.3-0.5,0.6-0.7c-0.1-0.2-0.2-0.3-0.2-0.5c0.1-0.2,0.3-0.3,0.6-0.5l0.1,0.6
				C86.3,423.1,85.3,423.3,84.7,423.6z M86.8,422.3c-0.1-0.2,0.1-0.6,0.8-0.9C87.7,421.6,87.4,422,86.8,422.3z M88.6,421.1
				c-0.1-0.2,0.2-0.4,0.5-0.5C89.2,420.8,88.9,421,88.6,421.1z M110.6,394.5c0-0.6,0.3-0.9,0.9-0.9c0.7,0,0.8,0.9,0.3,1.2
				C111.6,395.3,110.6,395.2,110.6,394.5z M112,396.5c-0.9,0-0.9-1.3,0-1.3C112.8,395.2,112.8,396.5,112,396.5z M125,386.2
				c-0.2,0.2-0.3,0.4-0.5,0.6c0,0,0,0.1,0,0.1v0.1c0.4,0.3,0.1,1-0.5,0.9c0,0-0.1,0-0.1,0c-0.1,0-0.2,0.1-0.3,0.1
				c-0.1,0-0.3,0-0.4-0.1c-0.1,0.3-0.4,0.6-0.7,0.3c-0.5-0.3-0.4-0.7-0.2-1.1c-0.1-0.1-0.1-0.2-0.2-0.3c-0.2-0.5,0.4-0.8,0.8-0.5
				c0.1-0.1,0.2-0.2,0.3-0.3c0.2-0.2,0.5-0.1,0.7,0c0.1-0.1,0.2-0.2,0.3-0.4C124.7,385,125.4,385.7,125,386.2z M146.1,369
				c-0.9,0-0.9-1.3,0-1.3C147,367.7,147,369,146.1,369z M176.9,344c-0.9,0-0.9-1.3,0-1.3C177.8,342.7,177.8,344,176.9,344z
				 M179.6,344.5C179.6,344.5,179.6,344.5,179.6,344.5c0,0.6-0.9,1-1.2,0.3c-0.2-0.4-0.4-0.9-0.1-1.3c0.3-0.4,0.9-0.4,1.3-0.4
				C180.5,343.2,180.5,344.5,179.6,344.5z M196,328c0,0.1,0.1,0.2,0.1,0.3c-0.1,0-0.2,0-0.2,0c-0.1-0.1-0.1-0.2-0.1-0.3
				C195.9,328,196,328,196,328z M196.2,331c-0.5-0.5-0.9-1.1-1.4-1.7c0,0,0,0,0,0c0,0,0,0,0,0c-0.6,0.4-0.7,1.1-1,1.6l-1.2-0.1
				c0.3-0.5,0.7-1,1-1.5c0.5,0,0.9,0,1.3,0c0,0,0,0,0.1,0l0,0c0,0,0,0,0,0c0,0,0,0,0,0c1.4,0.5,1.4,0.5,2.3,1.4
				C196.9,331.4,196.4,331.2,196.2,331z M197,329.2L197,329.2l0.1,0.1L197,329.2z M199.5,325.4c-0.2,0-0.5,0-0.7-0.1
				c-0.3-0.2-0.3-0.4-0.1-0.7c0.1-0.1,0.2-0.3,0.3-0.3c0.2-0.1,0.4-0.2,0.5-0.1c0.1,0.1,0.2,0.3,0.3,0.5
				C199.8,324.9,199.7,325.1,199.5,325.4z M201.6,322.1c-0.1-0.1-0.1-0.2-0.2-0.3c0.1,0,0.2-0.1,0.3,0c0.1,0.1,0.1,0.2,0.2,0.3
				C201.8,322.1,201.7,322.1,201.6,322.1z M205.9,325.2c0,0-0.1,0-0.2-0.1c0-0.1,0.1-0.1,0.1-0.2c0,0,0.1,0.1,0.1,0.1
				C206,325.1,205.9,325.2,205.9,325.2z M205.8,323.4c-0.3-0.6-0.6-1.1-0.9-1.6c0.6-0.3,1.2-0.5,1.8-0.7c0.1,0.1,0.2,0.2,0.2,0.3
				C206.5,322,206.2,322.6,205.8,323.4z M209,309.1c0,0,0.1,0,0.2,0c0.6,0.3,0.4,0.8,0.3,1.2c0,0.2-0.1,0.4-0.1,0.6
				c-0.5,0-0.4-0.4-0.4-0.6C208.8,309.9,208.5,309.4,209,309.1z M208.3,313.1c0.4-0.4,0.8-0.4,1.5,0.1c-0.7,0.1-1.2,0.2-1.9,0.3
				C208.1,313.3,208.2,313.2,208.3,313.1z M207.9,322.3c0.1,0,0.1,0,0.2,0.1c0,0.1,0,0.1,0,0.2C208,322.5,208,322.4,207.9,322.3z
				 M208.9,316.8c0.6-1.5,0.6-1.5,1.5-1.1C209.7,317,209.7,317,208.9,316.8z M210.3,311.8c-0.1,0.1-0.3,0.1-0.5,0.1
				c0-0.2,0-0.4,0.1-0.5c0.1-0.1,0.3-0.1,0.5-0.2C210.4,311.5,210.4,311.7,210.3,311.8z M213.5,320.1c0,0,0-0.1,0-0.2
				c0.1,0,0.1,0,0.2,0.1c0,0.1,0,0.1,0,0.2C213.6,320.2,213.5,320.2,213.5,320.1z M214.5,316.7c0.2,0,0.4,0,0.5,0.1
				c0.1,0.1,0.1,0.4,0.1,0.6c-0.3-0.1-0.5-0.1-0.6-0.2C214.4,317.1,214.5,316.8,214.5,316.7z M215.3,326.5c0,0-0.3-0.1-0.3-0.2
				c0-0.1,0.1-0.3,0.2-0.3c0.1,0,0.2,0,0.4,0.1C215.5,326.3,215.4,326.4,215.3,326.5z M215.6,315.1c0,0-0.1-0.1-0.1-0.1
				c0,0,0-0.1,0.1-0.1c0,0,0.1,0,0.1,0.1C215.7,315,215.6,315.1,215.6,315.1z M230.1,293.1c-0.1,0.3-0.1,0.4-0.2,0.6
				c-0.1,0.1-0.2,0.1-0.3,0.1c0-0.2-0.1-0.4-0.1-0.5C229.6,293.2,229.8,293.2,230.1,293.1z M220,308.4c0.2,0.2,0.4,0.5,0.6,0.9
				c-0.2,0.2-0.4,0.3-0.6,0.4c-0.3,0.1-0.6,0-0.6-0.3C219.2,309,219.3,308.5,220,308.4z M218.3,316.9c0-0.1-0.1-0.1-0.1-0.2
				c0,0,0.1,0,0.1,0.1C218.3,316.8,218.3,316.8,218.3,316.9z M219.2,320.8c-0.4-0.8-0.5-1.5-0.3-2.3
				C219.7,319.1,219.7,319.1,219.2,320.8z M219.8,314.3c-0.2-0.2-0.3-0.3-0.3-0.4c0.4-0.6-0.7-2,1.2-2.1c0.1,0.5,0.2,0.9,0.3,1.5
				C220.6,313.7,220.2,314,219.8,314.3z M222.4,315.4c-0.5,0.2-0.7-0.1-0.7-1c0.4,0,0.8,0.2,1.1,0.1c0.4-0.2,0.6-0.1,0.9,0.4
				C223.2,315,222.8,315.2,222.4,315.4z M222.5,312.4c0,0,0.1,0,0.2-0.1c0,0.1,0,0.2,0,0.2c-0.2,0.3-0.3,0.6-0.5,0.8
				c-0.1,0-0.1-0.1-0.2-0.1C222.2,313,222.3,312.7,222.5,312.4z M222.3,305.4c0-0.1,0-0.2,0.1-0.3c0,0,0.1,0,0.2,0
				c0,0.1-0.1,0.2-0.1,0.4C222.5,305.4,222.4,305.4,222.3,305.4z M224.7,303.4c-0.1,0.1-0.2,0.1-0.3,0.2c-0.1-0.9-1.1-0.1-1.4-0.7
				c0,0,0,0,0,0l0-0.1c0,0,0,0.1,0,0.1c0,0,0,0,0,0c-0.2,0.3-0.4,0.6-0.8,1.1c-0.1-0.5-0.2-0.7-0.2-1.2c0.4,0,0.7,0,1,0.1
				c0,0,0-0.1,0.1-0.1c0,0,0,0,0,0c0.4-0.3,0.7-0.6,1.2-0.6C224.7,302.4,225,302.9,224.7,303.4z M225,300.9c0,0-0.3,0.1-0.3,0
				c-0.3-0.2-0.4-0.5-0.2-0.9c0.1-0.1,0.3-0.1,0.7-0.2C225.1,300.4,225.1,300.7,225,300.9z M226,313.4c-0.2-0.1-0.4-0.1-0.5-0.3
				c-0.1-0.1,0-0.4,0-0.5c0.2,0,0.4,0,0.7,0.1C226.1,313,226,313.2,226,313.4z M226.5,299.7c0,0,0.1,0.1,0.1,0.1
				c0,0.1,0,0.1-0.1,0.2c-0.1-0.1-0.1-0.1-0.2-0.2C226.4,299.8,226.5,299.7,226.5,299.7z M226.4,297.8l0.2-0.1l0,0.2L226.4,297.8z
				 M226.5,308.4c0,0,0-0.1-0.1-0.1c0,0,0.1-0.1,0.1-0.1c0,0,0.1,0.1,0.1,0.1C226.6,308.3,226.6,308.4,226.5,308.4z M227.2,294.9
				c-0.1,0.1-0.3,0.3-0.4,0.3c-0.2,0-0.3-0.1-0.5-0.2c0,0,0-0.3,0.1-0.3c0.1-0.1,0.3-0.3,0.5-0.3c0.1,0,0.3,0.1,0.5,0.1
				C227.4,294.6,227.3,294.8,227.2,294.9z M228.2,296.8c0,0,0.1,0,0.2,0c0,0.1,0,0.1,0.1,0.2c-0.1,0-0.2,0-0.3,0
				C228.2,296.9,228.2,296.8,228.2,296.8z M229.5,301.1c0.2-0.1,0.4-0.2,0.7-0.3c0,0.1,0.1,0.1,0.1,0.2c-0.2,0.1-0.4,0.3-0.6,0.4
				C229.7,301.3,229.6,301.2,229.5,301.1z M230.1,310.3c0,0-0.2,0-0.2,0c-0.1-0.2-0.1-0.3-0.1-0.5c0.2,0,0.3-0.1,0.4-0.1
				C230.2,310,230.2,310.1,230.1,310.3z M230.6,308.4c-0.1,0.1-0.3,0.1-0.5,0.1c0-0.2,0-0.4-0.1-0.7c0.2,0,0.4,0,0.6,0
				C230.6,308.1,230.7,308.3,230.6,308.4z M229.8,300.8c-0.2-0.4-0.3-0.8-0.4-1.1c-0.3,0.1-0.6,0.1-1.1,0.2c0.1-0.5,0.2-0.8,0.3-1.2
				c0.9-0.2,1.7-0.3,2.7-0.6C231,299.3,231.3,300.5,229.8,300.8z M233.2,298.1c0-0.1,0.1-0.3,0.2-0.3c0.1,0,0.3,0,0.8,0.1
				c-0.4,0.2-0.6,0.4-0.8,0.4C233.4,298.3,233.2,298.1,233.2,298.1z M234.2,306.5c-0.2,0.1-0.4,0-0.6,0c0-0.1,0.1-0.3,0.1-0.5
				c0.2,0,0.4,0,0.5,0.1L234.2,306.5z M257,272.6c0.1,0,0.3,0,0.3,0c0.1,0.2,0,0.3,0.1,0.5c-0.2,0-0.3,0-0.4,0
				C257,272.9,257,272.8,257,272.6z M240.9,297.8c1,0,1,0,1.4,1.1C241.5,298.8,241.1,298.5,240.9,297.8z M240.8,296.8
				C240.8,296.8,240.9,296.7,240.8,296.8c0.1-0.1,0.2,0,0.2,0c-0.1,0-0.1,0.1-0.2,0.1C240.9,296.9,240.8,296.8,240.8,296.8z
				 M243,298.1c0.4-0.7,0.6-1.2,0.9-1.7c0.3,0.3,0.4,0.4,0.5,0.6c0.1,0.2,0.2,0.4,0.3,1C244.1,298,243.7,298,243,298.1z M252.9,277
				c0,0,0.1,0,0.2,0c0,0.1-0.1,0.2-0.1,0.4c-0.1,0-0.2-0.1-0.3-0.1C252.8,277.1,252.8,277,252.9,277z M248.7,274.6
				c0.1,0,0.3,0,0.3,0.1c0,0.1-0.1,0.2-0.1,0.4c-0.1,0-0.3-0.1-0.3-0.1C248.5,274.8,248.6,274.6,248.7,274.6z M247.2,284.1
				L247.2,284.1l-0.2-0.1L247.2,284.1z M244.8,275.1c0,0.1-0.3,0.2-0.5,0.3c-0.1-0.2-0.3-0.4-0.3-0.6c0.1-0.2,0.3-0.3,0.6-0.5
				L244.8,275.1z M244.1,273c-0.2-0.3-0.4-0.6-0.7-0.9C244.3,272.1,244.3,272.4,244.1,273z M243,289.6c-0.3-0.9-0.8-1.6,0.2-2
				c0.1,0,0-0.3,0-0.5c0.1-0.8,0.6-0.2,0.9-0.3c0.1,1.2,0.5,2.5-0.6,3.3c0.2,0.8,0.3,1.5,0.5,2.3c-0.6-0.3-1.1-0.5-1.7-0.3
				c-0.3,0.1-0.8-0.2-1-0.5c-0.1-0.1,0-0.6,0.1-0.8c0.2-0.7-0.5-0.7-0.7-1.1C241.3,288.7,241.3,288.7,243,289.6z M238.2,276.3
				c0-0.1,0-0.2,0-0.3c0,0,0.2,0,0.2,0c0.1,0.1,0.1,0.2,0.2,0.3C238.4,276.3,238.3,276.3,238.2,276.3z M238,287.5
				c0.1,0,0.3,0,0.3,0.1c0.1,0.2,0,0.3,0.1,0.5c-0.2,0-0.3,0-0.4,0C238,287.9,238,287.7,238,287.5z M235.1,300.5
				c0,0-0.1-0.1-0.1-0.1c0.1-0.1,0.2-0.2,0.3-0.2c0,0,0.1,0.1,0.1,0.1C235.3,300.4,235.2,300.4,235.1,300.5z M236.2,292.2
				c0,0,0-0.1,0-0.2c0.1,0,0.2,0.1,0.3,0.1c0,0.1,0,0.1,0,0.2C236.4,292.3,236.3,292.3,236.2,292.2z M237.5,290.1
				c-0.5,0.4-1,0.7-1.6,1c0,0-0.1,0-0.1-0.1c0,0,0,0-0.1,0.1c-0.1-0.1-0.1-0.1-0.1-0.2c0,0,0,0,0,0c0,0,0,0,0,0
				c0-0.1-0.1-0.1-0.1-0.2c0.1,0,0.1-0.1,0.2-0.1c0.1-0.2,0.1-0.4,0.3-0.6c0.3-0.3,0.7-0.5,1-0.8c0.3-0.2,0.6-0.2,0.7,0.1
				C237.8,289.6,237.7,290,237.5,290.1z M238.1,297c-0.2-0.7-0.2-0.7,0.2-1.6C238.8,296.1,238.5,296.5,238.1,297z M239.8,299.2
				c-0.2,0-0.4,0-0.4-0.1c-0.2-0.2-0.3-0.5,0.1-0.6c0.1,0,0.2,0,0.5,0.1C239.9,298.7,239.8,299,239.8,299.2z M239.1,294.5
				c0-0.1,0.1-0.3,0.1-0.5c0.2,0,0.3,0,0.5,0.1c0,0,0,0.4,0,0.4C239.5,294.6,239.3,294.5,239.1,294.5z M239.5,292.2
				c-0.1,0-0.2-0.1-0.4-0.2c0.2-0.2,0.4-0.5,0.6-0.7c0.1,0.1,0.1,0.3,0.3,0.7C239.9,292,239.7,292.1,239.5,292.2z M239.9,274.3
				l0.1,0.1L239.9,274.3L239.9,274.3z M239.7,271.2c0,0.1,0.1,0.1,0.1,0.2c0,0.1-0.1,0.1-0.1,0.2c-0.1-0.1-0.1-0.2-0.2-0.3
				C239.5,271.3,239.7,271.2,239.7,271.2z M238.2,271.2c0.2,0.6,0.5,1.1,0.6,1.5c0,0.1-0.2,0.5-0.3,0.5c-0.1,0.1-0.5-0.1-0.5-0.2
				C237.7,272.4,237.4,271.8,238.2,271.2z M235.6,271.9c0.1,0.2,0.2,0.4,0.2,0.6c0,0-0.3,0.2-0.3,0.1c-0.1-0.1-0.1-0.3-0.2-0.4
				C235.4,272.1,235.5,272,235.6,271.9z M231.5,270.7c0.2-0.1,0.4-0.1,0.7-0.1c-0.2,0.3-0.2,0.4-0.4,0.6c0,0-0.3,0-0.3-0.1
				C231.4,271,231.4,270.7,231.5,270.7z M229.7,269.6c0.1,0,0.3,0,0.4,0.1c-0.1,0.1-0.1,0.3-0.2,0.3c-0.1,0-0.2-0.1-0.4-0.1
				C229.6,269.7,229.6,269.6,229.7,269.6z M330.9,109.4c-0.8-0.4-0.8-0.5,0-1C330.9,108.8,330.9,109.1,330.9,109.4z M335,108.2
				c0,0-0.1-0.1-0.1-0.1c0,0,0.1-0.1,0.1-0.1c0,0,0,0.1,0.1,0.1C335.1,108.1,335.1,108.2,335,108.2z M338.7,106.5
				C338.6,106.5,338.6,106.4,338.7,106.5c0-0.1,0-0.2,0.1-0.2c0,0.1,0.1,0.1,0.1,0.2C338.8,106.4,338.7,106.5,338.7,106.5z
				 M338,101.6c1-0.6,1-0.6,1.4,0.1C338.9,101.7,338.5,101.7,338,101.6z M340.4,100.5c0-0.1,0-0.1,0-0.2c0,0,0.1,0,0.1,0
				C340.5,100.4,340.4,100.4,340.4,100.5z M341.6,99.4C341.6,99.4,341.6,99.3,341.6,99.4c0.1-0.1,0.1,0,0.1,0
				C341.7,99.4,341.6,99.4,341.6,99.4z M343.1,98.2c-0.1-0.1-0.2-0.1-0.3-0.2c0.1-0.2,0.2-0.3,0.3-0.5c0,0,0.1,0,0.2-0.1
				c0,0.1,0.1,0.2,0.1,0.2C343.3,97.8,343.2,98,343.1,98.2z M346.1,97.8c0-0.1-0.1-0.2-0.1-0.2c0-0.1,0.1-0.1,0.1-0.2
				c0,0.1,0.1,0.2,0.1,0.2C346.2,97.6,346.1,97.7,346.1,97.8z"/>
		</g>
		<g>
			<path d="M70.6,437.3c-0.2,0-0.4,0-0.6-0.1C70,437.4,70.1,437.5,70.6,437.3z"/>
		</g>
	</g>
	<g>
		<g>
			<g>
				<path class="st0" d="M158.3,451c0-0.3,0.4-0.5,0.7-0.4l0.4,0.1c0.3,0.1,0.5,0.4,0.4,0.7c-0.2,2.1,1.8,4.2,5.5,5
					c3.8,0.9,6.2-0.2,6.7-2.4c0.6-2.7-2-4.3-5.2-6.1c-3.1-1.8-6.7-4-5.8-7.7c0.8-3.2,4.1-4.6,8.5-3.6c4.2,1,6.9,3.8,6.4,6.7
					c0,0.2-0.3,0.5-0.6,0.5l-0.6-0.1c-0.3-0.1-0.4-0.4-0.4-0.6c0.2-2.2-1.7-4.1-5.2-5c-3.6-0.9-6,0.3-6.5,2.4c-0.6,2.6,1.9,4.2,5,6
					c3,1.8,7,4,6.1,7.8c-0.8,3.2-4.2,4.6-8.7,3.5C160.6,456.7,157.8,454,158.3,451z"/>
				<path class="st0" d="M204.3,442.9c0-0.3,0.2-0.5,0.5-0.4l0.6,0c0.3,0,0.5,0.2,0.4,0.5l-1.4,19.9c0,0.3-0.2,0.5-0.5,0.4l-0.6,0
					c-0.3,0-0.5-0.2-0.4-0.5L204.3,442.9z"/>
				<path class="st0" d="M238.1,463c0,0.3-0.2,0.5-0.4,0.5l-0.6,0.1c-0.3,0-0.5-0.2-0.5-0.4l-2-19.8c0-0.3,0.2-0.5,0.4-0.5l0.5,0
					c0.3,0,0.6,0.1,0.8,0.3l15.6,16c0.1,0.1,0.2,0,0.2-0.1l-1.7-17.2c0-0.3,0.2-0.5,0.4-0.5l0.6-0.1c0.3,0,0.5,0.2,0.5,0.4l2,19.8
					c0,0.3-0.2,0.5-0.4,0.5l-0.5,0c-0.3,0-0.6-0.1-0.8-0.3l-15.6-16c-0.1-0.1-0.2,0-0.2,0.1L238.1,463z"/>
				<path class="st0" d="M300.5,445.1c0.1-0.3,0.3-0.4,0.6-0.4l0.6,0.1c0.3,0,0.4,0.3,0.3,0.5c-0.9,3.4-3.5,6.3-7.2,7.4
					c-5.7,1.8-11.9-1.3-13.7-7c-1.8-5.7,1.4-11.8,7.1-13.6c3.6-1.1,7.4-0.3,10.1,1.9c0.2,0.1,0.2,0.5,0,0.6l-0.4,0.4
					c-0.2,0.2-0.5,0.2-0.7,0.1c-2.4-1.8-5.5-2.5-8.5-1.6c-4.9,1.5-7.6,6.8-6.1,11.6c1.5,4.9,6.8,7.6,11.7,6
					C297.5,450.3,299.7,448,300.5,445.1z"/>
				<path class="st0" d="M332.2,436.9c-0.2,0.1-0.5,0-0.7-0.2l-9.6-17.5c-0.1-0.2,0-0.5,0.2-0.7l11.7-6.4c0.2-0.1,0.5,0,0.7,0.2
					l0.3,0.5c0.1,0.2,0,0.5-0.2,0.7l-10.5,5.7c-0.2,0.1-0.3,0.3-0.1,0.5l3.6,6.6c0.1,0.2,0.3,0.3,0.5,0.1l8.8-4.8
					c0.2-0.1,0.5,0,0.7,0.2l0.3,0.5c0.1,0.2,0,0.5-0.2,0.7l-8.8,4.8c-0.2,0.1-0.3,0.3-0.1,0.5l3.5,6.3c0.1,0.2,0.3,0.3,0.5,0.1
					l10.5-5.7c0.2-0.1,0.5,0,0.7,0.2l0.3,0.5c0.1,0.2,0,0.5-0.2,0.7L332.2,436.9z"/>
				<path class="st0" d="M373.4,386.5c-0.1,0.2-0.4,0.3-0.6,0.1l-0.5-0.5c-0.2-0.2-0.2-0.5-0.1-0.8l1.8-3.4c0.1-0.3,0.4-0.6,0.6-0.8
					l0.1-0.1c0.2-0.2,0.5-0.2,0.7,0l13.7,14.5c0.2,0.2,0.2,0.5,0,0.7l-0.4,0.4c-0.2,0.2-0.5,0.2-0.7,0l-12.5-13.2
					c-0.1-0.1-0.4-0.1-0.4,0.1L373.4,386.5z"/>
				<path class="st0" d="M412.5,370.2c-0.1,0.2-0.4,0.1-0.4-0.1l-2.4-7.9c0-0.1-0.2-0.1-0.2,0c-0.2,0.6-0.6,1.2-1,1.8
					c-2.4,3.2-6.8,3.8-10,1.4c-3.2-2.4-3.8-7-1.4-10.2c2.4-3.2,6.9-3.8,10.1-1.4c1.3,1,2.2,2.3,2.7,3.9l3.3,10.9
					c0.1,0.3,0,0.6-0.1,0.9L412.5,370.2z M408.4,358c-0.4-1.2-1-2.1-2-2.9c-2.5-1.9-6.1-1.4-8,1.1c-1.9,2.6-1.5,6.1,1.1,8
					c2.6,1.9,6.1,1.4,8.1-1.1C408.6,361.5,408.9,359.7,408.4,358z"/>
				<path class="st0" d="M429.1,334.6c-2.2-1.1-3.2-3.4-3-5.9c0-0.1-0.1-0.2-0.3-0.1c-1.6,1.3-3.6,1.7-5.5,0.8
					c-2.8-1.4-3.5-5.1-1.9-8.3c1.6-3.2,5-4.9,7.8-3.4c1.9,0.9,2.7,2.8,2.6,4.9c0,0.2,0.2,0.2,0.3,0.1c1.9-1.7,4.4-2.3,6.6-1.2
					c3.1,1.6,3.9,5.8,2.1,9.3C436,334.3,432.3,336.2,429.1,334.6z M421.1,327.9c2.1,1,4.6-0.1,5.9-2.6c1.3-2.5,0.7-5.3-1.4-6.3
					c-2-1-4.6,0.1-5.9,2.7C418.5,324.1,419.1,326.8,421.1,327.9z M429.8,333.1c2.4,1.2,5.3-0.1,6.8-3c1.5-2.9,0.8-6.1-1.6-7.3
					c-2.4-1.2-5.4,0.2-6.8,3.1C426.7,328.7,427.4,331.9,429.8,333.1z"/>
				<path class="st0" d="M441.7,293.2c-5.6-1.6-9.7-5.7-8.2-10.6c1.4-5,7-6.3,12.6-4.7c5.6,1.6,9.6,5.7,8.2,10.7
					C452.9,293.5,447.3,294.8,441.7,293.2z M442.1,291.7c5,1.4,9.6,0.3,10.7-3.5c1.1-3.8-2.2-7.3-7.2-8.7c-5-1.4-9.6-0.3-10.7,3.6
					C433.8,286.9,437.1,290.3,442.1,291.7z"/>
			</g>
			<g>
				<path class="st0" d="M66.8,358.1c0.2,0.2,0.1,0.5-0.1,0.7l-16.9,12.4c-0.2,0.2-0.5,0.1-0.7-0.1l-5.6-7.6
					c-2.5-3.4-1.7-6.8,0.8-8.5c1.7-1.3,3.9-1.4,5.7-0.5c0.2,0.1,0.3,0,0.2-0.2c-0.7-2.4,0-4.8,2-6.2c2.5-1.9,6.2-1.4,8.5,1.7
					L66.8,358.1z M44.9,362.6l4.6,6.3c0.1,0.2,0.4,0.2,0.5,0.1l6.3-4.6c0.2-0.1,0.2-0.4,0.1-0.6l-4.9-6.6c-1.6-2.2-4.2-2.3-6.1-1
					C43.7,357.5,43,360,44.9,362.6z M52.4,356l5.1,7c0.1,0.2,0.4,0.2,0.5,0.1l6.5-4.8c0.2-0.1,0.2-0.4,0.1-0.6l-5.1-7
					c-1.8-2.4-4.6-2.6-6.5-1.3C51.2,350.9,50.6,353.6,52.4,356z"/>
				<path class="st0" d="M33,325.1c-5.8,2.5-12.5-0.2-15-6.1c-2.5-5.8,0.2-12.5,6-15c5.8-2.5,12.5,0.2,14.9,6
					C41.5,315.9,38.8,322.6,33,325.1z M32.3,323.5c4.9-2.1,7.2-7.8,5.1-12.8c-2.1-4.9-7.8-7.2-12.8-5.1c-4.9,2.1-7.2,7.8-5.1,12.8
					C21.7,323.3,27.4,325.6,32.3,323.5z"/>
				<path class="st0" d="M4.2,269.8c-0.3-0.1-0.5-0.3-0.6-0.6l-0.1-0.8c-0.1-0.3,0.1-0.6,0.3-0.8l19.1-13.1c0.2-0.1,0.4,0,0.5,0.2
					l0.1,0.8c0.1,0.3-0.1,0.6-0.3,0.8l-3.7,2.6c-0.2,0.1-0.3,0.4-0.3,0.6l2.2,12.8c0,0.2,0.2,0.4,0.5,0.5l4.4,1.1
					c0.3,0.1,0.5,0.3,0.6,0.6l0.1,0.8c0,0.2-0.2,0.4-0.4,0.4L4.2,269.8z M5.7,268.2c-0.1,0.1-0.1,0.3,0.1,0.3l13.7,3.5
					c0.2,0.1,0.4-0.1,0.3-0.3l-2-11.4c0-0.2-0.2-0.3-0.4-0.2L5.7,268.2z"/>
				<path class="st0" d="M0.6,225.3c-0.3,0-0.5-0.3-0.5-0.5l0.5-9.2c0.3-4.7,3.7-7.3,7.4-7.1c3,0.2,5.5,2,6.4,5
					c0,0.2,0.3,0.3,0.4,0.2l7.6-4.9c0.2-0.1,0.4,0,0.4,0.2l-0.1,1c0,0.3-0.2,0.6-0.5,0.8l-7.4,4.7c-0.1,0.1-0.2,0.3-0.3,0.5
					c0,0.1,0,0.3,0,0.4l-0.4,7.6c0,0.2,0.1,0.4,0.4,0.4l6.9,0.4c0.3,0,0.5,0.3,0.5,0.5l0,0.6c0,0.3-0.3,0.5-0.5,0.5L0.6,225.3z
					 M2.2,215.8l-0.4,7.6c0,0.2,0.1,0.4,0.4,0.4l10.2,0.5c0.2,0,0.4-0.1,0.4-0.4l0.4-7.6c0.2-3.8-2.3-6-5.2-6.2
					C5.1,210,2.4,211.9,2.2,215.8z"/>
				<path class="st0" d="M27.9,179.9c-0.1,0.3-0.4,0.4-0.6,0.3l-20.1-5.8c-0.3-0.1-0.4-0.4-0.3-0.6l2.2-7.8
					c1.8-6.4,7.5-8.5,13.4-6.8c5.9,1.7,9.6,6.4,7.7,12.8L27.9,179.9z M10.6,166.6l-1.8,6.2c-0.1,0.2,0.1,0.4,0.3,0.5l17.2,4.9
					c0.2,0.1,0.4-0.1,0.5-0.3l1.8-6.2c1.5-5.3-1.5-9.4-6.6-10.9C16.9,159.4,12.1,161.3,10.6,166.6z"/>
				<path class="st0" d="M25.6,127.6c-0.1,0.2-0.4,0.3-0.7,0.2l-0.5-0.3c-0.2-0.1-0.3-0.4-0.2-0.7l7.4-13.7c0.1-0.2,0.4-0.3,0.7-0.2
					l0.2,0.1c0.3,0.1,0.5,0.4,0.6,0.7l9.4,21.2c0.1,0.2,0.3,0.2,0.3,0l6.5-12.1c0.1-0.2,0.4-0.3,0.7-0.2l0.5,0.3
					c0.2,0.1,0.3,0.4,0.2,0.7l-7.6,14.1c-0.1,0.2-0.4,0.3-0.7,0.2l-0.2-0.1c-0.3-0.1-0.5-0.4-0.6-0.7L32.2,116
					c-0.1-0.2-0.3-0.2-0.3,0L25.6,127.6z"/>
				<path class="st0" d="M57.4,94.3c-4.7-4.1-5.2-11.3-1.1-16.1c4.1-4.7,11.4-5.2,16.1-1.1c4.7,4.1,5.2,11.3,1.1,16.1
					C69.3,98,62.1,98.5,57.4,94.3z M58.5,93.1c4,3.5,10.2,3.1,13.7-1c3.5-4,3.1-10.2-0.9-13.7c-4-3.5-10.2-3.1-13.7,0.9
					C54,83.4,54.4,89.6,58.5,93.1z"/>
				<path class="st0" d="M103.3,63.8c0.2,0.2,0.1,0.5-0.1,0.7l-0.5,0.4c-0.2,0.2-0.5,0.1-0.7-0.1L89.9,47.7
					c-0.2-0.2-0.1-0.5,0.1-0.7l0.4-0.3c0.3-0.2,0.6-0.2,0.9-0.1l22.5,6.6c0.1,0,0.2-0.1,0.2-0.2l-10.5-14.9
					c-0.2-0.2-0.1-0.5,0.1-0.7l0.5-0.4c0.2-0.2,0.5-0.1,0.7,0.1l12.1,17.1c0.2,0.2,0.1,0.5-0.1,0.7l-0.4,0.3
					c-0.3,0.2-0.6,0.2-0.9,0.1L93,48.8c-0.1,0-0.2,0.1-0.2,0.2L103.3,63.8z"/>
				<path class="st0" d="M144.5,39.9c-0.3,0.1-0.6,0-0.7-0.3l-8-19.3c-0.1-0.3,0-0.6,0.3-0.7l13-5.4c0.3-0.1,0.6,0,0.7,0.3l0.2,0.6
					c0.1,0.3,0,0.6-0.3,0.7l-11.6,4.8c-0.2,0.1-0.3,0.3-0.2,0.5l3,7.3c0.1,0.2,0.3,0.3,0.5,0.2l9.7-4c0.3-0.1,0.6,0,0.7,0.3l0.2,0.5
					c0.1,0.3,0,0.6-0.3,0.7l-9.7,4c-0.2,0.1-0.3,0.3-0.2,0.5l2.9,7c0.1,0.2,0.3,0.3,0.5,0.2l11.6-4.8c0.3-0.1,0.6,0,0.7,0.3l0.2,0.6
					c0.1,0.3,0,0.6-0.3,0.7L144.5,39.9z"/>
				<path class="st0" d="M204.6,18.2c-0.1-0.3,0.2-0.7,0.5-0.7l0.5,0c0.3,0,0.6,0.2,0.6,0.5c0.5,2.2,3.2,3.6,7.1,3.2
					c4.1-0.3,6.1-2.2,5.9-4.6c-0.2-2.9-3.4-3.6-7.2-4.5c-3.6-0.8-8-1.8-8.3-5.8c-0.3-3.4,2.6-6,7.3-6.3c4.6-0.4,8.1,1.5,8.6,4.7
					c0,0.2-0.1,0.6-0.4,0.7l-0.6,0c-0.3,0-0.6-0.2-0.6-0.5c-0.5-2.2-3-3.6-6.8-3.3c-3.9,0.3-5.9,2.2-5.7,4.5
					c0.2,2.8,3.3,3.6,6.9,4.4c3.6,0.8,8.3,1.8,8.6,5.9c0.3,3.4-2.7,5.9-7.6,6.3C208.7,23.2,205.1,21.3,204.6,18.2z"/>
				<path class="st0" d="M269.7,3.8c0-0.3,0.3-0.5,0.6-0.4l0.6,0.1c0.3,0,0.5,0.3,0.4,0.6l-1.9,13c-0.7,4.9-4.4,8.2-10.4,7.3
					c-5.9-0.9-8.6-5.1-7.9-9.9l1.9-13c0-0.3,0.3-0.5,0.6-0.4l0.6,0.1c0.3,0,0.5,0.3,0.4,0.6l-1.9,12.9c-0.6,4.1,1.6,7.4,6.4,8.2
					c4.9,0.7,7.9-1.9,8.5-6L269.7,3.8z"/>
				<path class="st0" d="M305.2,13.1c0.1-0.3,0.4-0.4,0.7-0.3l8.5,3.3c4.4,1.7,5.8,5.7,4.4,9.3c-1.1,2.8-3.6,4.6-6.7,4.5
					c-0.2,0-0.3,0.2-0.3,0.4L314,39c0,0.2-0.2,0.4-0.4,0.3l-0.9-0.4c-0.3-0.1-0.5-0.4-0.6-0.7l-2.1-8.5c-0.1-0.2-0.2-0.3-0.4-0.4
					c-0.1,0-0.2-0.1-0.3-0.1l-7.1-2.8c-0.2-0.1-0.4,0-0.5,0.2l-2.5,6.4c-0.1,0.3-0.4,0.4-0.7,0.3l-0.6-0.2c-0.3-0.1-0.4-0.4-0.3-0.7
					L305.2,13.1z M313.7,17.5l-7.1-2.7c-0.2-0.1-0.4,0-0.5,0.2l-3.7,9.5c-0.1,0.2,0,0.4,0.2,0.5l7.1,2.7c3.6,1.4,6.4-0.3,7.5-3
					C318.3,22.1,317.3,18.9,313.7,17.5z"/>
				<path class="st0" d="M339.8,53.3c-0.2-0.2-0.3-0.5-0.1-0.7l11.6-17.4c0.2-0.2,0.5-0.3,0.7-0.1l11.2,7.5c0.2,0.2,0.3,0.5,0.1,0.7
					l-0.3,0.5c-0.2,0.2-0.5,0.3-0.7,0.1l-9.9-6.6c-0.2-0.1-0.4-0.1-0.5,0.1l-4.8,7.2c-0.1,0.2-0.1,0.4,0.1,0.5l8.5,5.7
					c0.2,0.2,0.3,0.5,0.1,0.7l-0.3,0.5c-0.2,0.2-0.5,0.3-0.7,0.1l-8.5-5.7c-0.2-0.1-0.4-0.1-0.5,0.1l-4.6,6.9
					c-0.2,0.2-0.5,0.3-0.7,0.1L339.8,53.3z"/>
				<path class="st0" d="M403.1,105.5c0.3,0,0.5,0.2,0.6,0.5l0.1,0.7c0.1,0.3-0.2,0.5-0.4,0.5c-3.7,0.3-7.5-1.2-9.9-4.4
					c-3.9-5-3-12.2,2-16c5-3.8,12.1-2.9,16,2.1c2.4,3.1,3,7.2,1.8,10.7c-0.1,0.2-0.4,0.4-0.6,0.3l-0.6-0.3c-0.3-0.1-0.4-0.4-0.3-0.7
					c1-3,0.5-6.3-1.6-9c-3.3-4.2-9.4-5-13.7-1.7c-4.2,3.3-5,9.4-1.7,13.7C396.9,104.4,400,105.7,403.1,105.5z"/>
				<path class="st0" d="M423.8,128.7c5.7-2.6,12.5-0.1,15.1,5.7c2.6,5.7,0.1,12.5-5.6,15.1c-5.7,2.6-12.5,0.1-15.1-5.7
					C415.5,138,418,131.3,423.8,128.7z M424.5,130.2c-4.9,2.2-7,8-4.8,12.9c2.2,4.9,8,7.1,12.9,4.8c4.9-2.2,7-8,4.8-12.9
					C435.1,130.2,429.3,128,424.5,130.2z"/>
			</g>
		</g>
	</g>
	<g>
		<path d="M167.3,221.8C167.3,221.8,167.3,221.8,167.3,221.8C167.3,221.8,167.3,221.8,167.3,221.8L167.3,221.8z"/>
		<path d="M169.6,251.7c-7.7-1.3-15.8-4.5-22.2-5.9c2.6-2.4,6.5-2.9,8.7-5.8c0,0.7,1.4,0.4,2.7-0.3c-0.3,0.1-0.4-0.1-0.5-0.2
			c0,0,0,0,0,0l0-0.1l0,0.1c0,0-0.1,0-0.1,0c-0.2,0.1-0.3,0.2-0.5,0.2l0-0.3c0.2,0,0.3,0,0.5,0.1c0,0,0.1,0,0.1,0c0,0,0,0,0,0
			c0-0.5,0.1-0.5,0.6-0.6c0,0.3,0,0.6-0.1,0.9c1.5-0.7,2.9-1.9,2.5-2.6c0,0.2-0.1,0.2-0.1,0.3c0,0,0,0,0,0c0,0.1-0.2,0.1-0.3,0.2
			c0-0.1-0.1-0.3-0.1-0.4c0,0,0,0,0.1-0.1c0,0,0,0,0,0c0-0.5,0.9-0.5,1.3-0.5c0-0.5,0.4-0.5,0.4,0l-0.4,0l0,0.5
			c1.7,0,1.3-1.9,2.6-2.4c7.7-1,10.6-11.2,13.2-17.8c0,0.9,0,1.4,0.8,1.4c0.9-2.4,2.2-4.3,3.1-6.7c-0.8-28.8-21.7-36-44.9-33.8
			c-9.8-0.8-21.4,0.3-29.6,4.6c2.1,0,4.3-0.5,6.8,1.3c-6,0.6-5.9,0-9.8,4.3c0.4,0,1.3,0,1.7,0c0-0.5,0-0.5,0.4-0.5
			c0-0.5,0.4-0.5,0,0c0,0.5,0,0.5-0.4,0.5c-1.3,1.9-3.5,1.9-4.3,3.8c1.3,0-1.4,4.7,1.2,3.8c-0.9,1.9-2.2,3.3-3.1,5.2
			c3.4,0.9,1.2,3.3,3.3,5.6c4.3-0.1,0.4-0.4,4.2-0.4c0,0.7,0,1.5-0.1,2.4c0.2,0.1,0.4,0.4,0.4,0.7v0.5c0,0.4-0.2,0.7-0.5,0.8
			c-0.2,3.9-0.6,8.6-1,13.3c0.1,0.1,0.2,0.3,0.2,0.5c0,0.2,0.1,0.4,0.2,0.6c0.3,0.6-0.1,1.2-0.6,1.3c-0.1,0.7-0.1,1.4-0.2,2.1
			c0.5,0,1,0.2,1,0.8c-0.1,2-1.2,3.7-1.2,5.7c0,0.3-0.1,0.6-0.3,0.7c0,0.3,0,0.6-0.1,0.9c-2.6,1.5-4.8,2.9-7.8,3.9
			c0.4,2.4,0.4,3.3-0.5,5.2c0.8,2.4,2.5,3.7,4.6,5.1c-0.5,1.4,2.1,2.8,2,5.2c-2.4,15.6-9.2,38.9-5.7,54.9c2.1-0.5,3,0.9,3.4,2.3
			c-5.6,2,4.2-1.5-0.6,0.9c-6.9,1-9,1.5-15.5,5.9c-0.5,1.4,0.4,1.4,0.4,2.4c1.3,0,3.4-1,3.8,0.4c0,1.9-1.7,1.9-2.6,2.4
			c1.3,0.5,1.7,0,3-0.5c1.2,2.8,3.8,2.8,5.1,4.2c-0.9,0-1.3,0-1.3,1c2.1,1.1,3.1,1,5.5,0.9c0.1,0,0.3,0,0.4,0c0,0,0,0,0,0
			c0.4,0,0.8,0,1.3,0c0-0.5,0.9-1,0.9-0.5c0,0.5-0.4,0.5-0.9,0.5c0.4,0.9-0.9,0.5-0.9,1.4c2.3,0.8,0.5-0.6,1.6,0.5
			c0.7-0.2,1.1-0.9,1.9-0.9c0,0,0,0.1,0,0.1c0.2-0.1,0.4-0.2,0.7-0.2c0.2,0.9-0.1,1-0.7,1c0.1,0.3,0.2,0.5,0.4,0.5
			c5.6-2,11.2-3.5,15.9-5.9c2.1,3.8,8.2-3.9,10.3-2c0-0.9-0.8-1.4,0.5-1.9c2.9,2.8,5.6-3.9,7.7-2c0.9-2.8,5.7-6.7,8.2-3.4
			c0.9-3.3,3-2.4,5.6-3.4c0-0.9,0-2.8,2.2-3.3c0.4,1.9-1.3,1.4-1.3,2.9c1.7-0.5,0.9-1,2.6,0c0.9-1.9,3.1-3.4,5.2-2.4
			c0.5-1.4,1.3-2.4,2.6-2.4c0.4-1,0-2.8,0.9-3.3c0.8,0.5,1.3-1.4,1.3,0.5c1.7-0.5,3-1,4.7-0.5c0-0.5,0.4-1,0.9-1
			c0-1.4,1.3-1.4,2.2-1.9c0-1.4,1.7,0.5,0,0c0.4,1.9-1.7,1.4-2.2,1.9c1.7,1.9,4.3-1.9,5.2-3.8c3.4,0.4,6.5-2.9,7-7.2
			c1.3,0.5,0.9-1.4,2.2-1c0.9-3.8,2.7-6.7,4-10C188.6,268,180.7,257.2,169.6,251.7z M173.8,222.2c0-0.1,0.3-0.1,0.4-0.1
			c0.5,0.5,0.9,1.1,0.5,2c-0.1-0.3,0-0.6-0.2-0.9c-0.2-0.3-0.5-0.4-0.7-0.6C173.7,222.5,173.7,222.3,173.8,222.2z M171.1,222.8
			c0,0,0.1,0,0.1,0c0,0.1-0.1,0.2-0.1,0.3c0,0-0.1,0-0.1,0C171,223,171.1,222.9,171.1,222.8z M171.1,223.2c0.1,0.1,0.1,0.1,0.2,0.2
			c-0.1,0-0.2,0.1-0.3,0.1c-0.1,0-0.1-0.1-0.2-0.2C170.9,223.3,171,223.2,171.1,223.2z M91.6,325.9c0-0.5,0.9-0.5,0.9,0
			C92.5,326.9,92,325.9,91.6,325.9z M99.7,329.6c0,0,0.9-1,1.3-0.5C101.8,330,99.2,331.5,99.7,329.6z M104.4,329.1
			c0.9-0.5,2.2-1,2.1,0.9C105.7,330,103.9,330.5,104.4,329.1z M105.6,331.9c0-0.5,0.4-1,1.3-1C106.9,331.4,106.5,331.9,105.6,331.9z
			 M108.2,331.4c0-0.5,0.4-0.5,0.9-0.5C109.1,331.4,108.6,331.4,108.2,331.4z M161.2,269.3c0,0.5-0.4,0.5-0.9,0.5
			C160.4,269.3,160.8,269.3,161.2,269.3z M153.1,242c-0.4,0-0.8-0.5-1.3-0.5c0-0.5,0-0.5,0-0.9c0.4,0,0.9-0.5,1.3-0.5
			C153.1,240.5,153.1,241.5,153.1,242z M154.9,237c0-0.1,0-0.1,0-0.2c0,0,0.1,0,0.1,0c0,0,0,0.1,0,0.1C155,237,155,237,154.9,237z
			 M155,233.3l0.4-0.4c0,0,0.1,0.2,0.1,0.3C155.4,233.4,155.2,233.4,155,233.3z M157.1,237.2c-0.8-0.5,0-0.9,0-1.4
			C157.9,236.2,157.1,236.7,157.1,237.2z M161,228.8c-0.1-0.1-0.1-0.2-0.1-0.2c0,0,0.1,0,0.1,0c0.1,0.1,0.1,0.1,0.1,0.2
			C161.1,228.8,161,228.8,161,228.8z M161.9,225.7c0-0.1,0-0.2-0.1-0.3c0,0,0.1,0,0.1,0c0,0.1,0,0.2,0.1,0.2
			C162.1,225.7,162,225.7,161.9,225.7z M162.7,229.9c0,0-0.1,0-0.1,0c0-0.1,0-0.2,0.1-0.2c0,0,0.1,0,0.1,0
			C162.7,229.8,162.7,229.9,162.7,229.9z M162.5,227.8c0.7-0.2,1.1,0,1.5,0.7C163.3,228.4,162.9,228.3,162.5,227.8z M166.5,229.1
			c-0.3,0-0.6,0-0.9-0.1c0-0.3,0-0.6-0.1-1.1c0.4,0.4,0.8,0.6,1.1,0.9C166.6,228.9,166.5,229,166.5,229.1z M170.2,222.4
			c0,0,0.1-0.1,0.1,0c0.1,0.1,0.1,0.1,0.2,0.2c-0.1,0-0.2,0-0.3-0.1C170.2,222.5,170.2,222.4,170.2,222.4z M169.8,228
			c0.1,0,0.1,0.1,0.2,0.1c0,0,0,0.1-0.1,0.1c-0.1,0-0.1-0.1-0.2-0.1C169.8,228,169.8,228,169.8,228z M167.2,221.8
			C167.2,221.8,167.3,221.8,167.2,221.8c-0.1-0.1-0.2-0.1-0.3-0.2C167,221.7,167.2,221.8,167.2,221.8L167.2,221.8
			C167.3,221.8,167.3,221.8,167.2,221.8L167.2,221.8C167.3,221.8,167.3,221.8,167.2,221.8c-0.1,0.3-0.2,0.5-0.4,0.8
			C166.5,222.1,167,222.1,167.2,221.8z M131.9,180.3c0,0.5-0.4,0.5-0.9,0.5C131.1,180.3,131.5,180.3,131.9,180.3z M129.9,199.7
			c1.7-0.2,3.4-0.4,5.2-0.6c0.1-0.2,0.3-0.3,0.5-0.3c1-0.2,2-0.2,3.1-0.2c0.3,0,0.5,0.1,0.6,0.3c0.6,0,1.2,0,1.8,0
			c2-1.1,4-1.5,6.1-0.1c0.2,0.1,0.2,0.2,0.3,0.3c0.2,0,0.4,0,0.6,0c0,0,0-0.1,0-0.1c-0.2-0.5,0-1.2,0.8-1.2c0.5,0,0.8,0.3,0.8,0.7
			c0.2,0,0.5-0.1,0.7-0.1c0.2-0.2,0.5-0.3,0.8-0.2c1.1,0.3,2.3,0.4,3.4,0.3c0.7-0.1,0.9,0.5,0.8,1c0.1-0.2,0.4-0.4,0.7-0.4
			c1.2,0,2.4,0.2,3.6,0.5c0.7,0.2,0.8,1.1,0.4,1.5c0,0,0,0,0.1,0c0.2-0.6,0.9-1,1.5-0.4l0.5,0.5c0.2,0.2,0.3,0.4,0.3,0.7
			c0,0,0.1,0,0.1,0c0-0.5,0.3-0.9,0.9-0.9c0.6,0,0.9,0.5,0.8,1c0,0,0,0,0,0c0.3-0.2,0.8-0.3,1.1,0.1c0.2,0.2,0.3,0.3,0.5,0.4
			c0.4,0.2,0.5,0.6,0.4,0.9c0.1,0.1,0.3,0.1,0.4,0.1c-0.9,0.9-1.8,1.8-2.7,2.7c-0.1,0.1-0.1,0.2,0,0c0,0,0,0-0.1,0.1
			c-0.1,0.2-0.2,0.3-0.4,0.4c-9,8.4-20.1,14.6-33.5,18.1C130,215.8,129.7,208.7,129.9,199.7z M144.5,244.9c0-0.5,0.4-0.5,0.9-0.5
			C145.4,244.9,144.9,244.9,144.5,244.9z M144.6,265.2c-0.4,1-2.1,0.5-0.8-0.5C144.2,264.8,144.2,265.3,144.6,265.2z M137.7,266.8
			c0,0.5-0.4,0.5-0.9,0.5C136.9,266.8,137.3,266.8,137.7,266.8z M133.5,263.5c-0.5,1.4-1.3,0.5-2.1,0
			C131.4,262.6,133.1,263,133.5,263.5z M126.8,180.8c0,0.5-0.9,0.5-1.3,0.5C125.5,180.8,126.4,180.8,126.8,180.8z M121.2,180.9
			c0.9,0,1.3,0,1.3,0.9c-0.4,0-0.9,0-1.3,0C121.2,181.4,121.2,181.4,121.2,180.9C119.5,180.9,121.3,179,121.2,180.9z M141.1,315.9
			c0-0.5,0.4-0.5,0.9-0.5C142,315.9,141.6,315.9,141.1,315.9z M152.4,311c-2.1-0.4,0-1.9,1.3-1.9C154.1,311,151.5,309.1,152.4,311z
			 M156.5,287.6c0.1,0.3,0,0.5-0.2,0.8c-0.4,0.4-0.9,0.7-1.4,1c-0.5,0.3-0.9,0.1-1.2-0.3c-1.8,0.9-3.6,1.9-5.3,2.8
			c0,0.3-0.1,0.5-0.4,0.7c-0.9,0.5-1.8,1-2.7,1.5c-0.2,0.1-0.4,0.1-0.6,0.1c-0.6,0.4-1.2,0.7-1.9,1.1c0.1,0.4,0,0.8-0.4,1
			c-1.4,0.9-2.9,1.7-4.6,1.8c-0.2,0-0.4-0.1-0.5-0.2c-1.4,0.7-2.8,1.3-4.2,2c0.1,0.4,0,1-0.6,1.1c0,0,0,0,0.1-0.1
			c-0.2,0.1-0.3,0.2-0.5,0.2c0.3,0.5,0.3,1.2-0.4,1.4c-1.6,0.4-3.2,0.8-4.9,1.2c-0.4,0.1-0.8-0.1-1-0.4c-3.2,1.3-5.9,3.2-9.5,4
			c0-2.4-0.7-8,1.5-10.9c-1.3-1.4-0.7-7.1,1.4-8.1c0-0.9-0.4-1.9-0.8-2.4c1.8-4.8,1.9-13.3,4.2-18.5c3,0.9,6-1.5,8.2-1.1
			c0,0.5-1.3,0.5-1.7,0.5c0.4,0.5,0.8,0.5,0.8,1.4c1.7,0.5,1.7-1,3-1c0.4,0.5,0.4,1.9,1.3,1.9c0.9-0.5,0.9-1.9,1.3-2.9
			c0.9,0,0.4,1.9,0,2.4c2.5,2.3,6.9-1.5,6.8,1.3c4.8-3.4,7.7,1.3,13.7,0.8c0-1.4-1.7-0.9-2.5-1.4c0.5-1.4,0-1.4-1.3-1.9
			c0.9-1,3.4,0.4,4.7,0.4c-0.9,1.9,0,2.8,1.7,1.9c0,1.4-2.1,0-1.7,1.9c5.1,1.8,9.8,1.8,14.5,3.6
			C167.7,280.8,162.3,284.4,156.5,287.6z M152.2,269.9c0-0.5,0.4-0.5,0.9-0.5C153.1,269.9,152.6,269.9,152.2,269.9z"/>
	</g>
	<circle cx="446.1" cy="213.6" r="3.3"/>
</g>
</svg>
